{
	"asset":{
		"generator":"Khronos glTF Blender I/O v4.3.47",
		"version":"2.0"
	},
	"scene":0,
	"scenes":[
		{
			"name":"Scene",
			"nodes":[
				0
			]
		}
	],
	"nodes":[
		{
			"mesh":0,
			"name":"Cube"
		}
	],
	"materials":[
		{
			"doubleSided":true,
			"name":"cottage_texture"
		}
	],
	"meshes":[
		{
			"name":"Cube.002",
			"primitives":[
				{
					"attributes":{
						"POSITION":0,
						"NORMAL":1,
						"TEXCOORD_0":2
					},
					"indices":3,
					"material":0
				}
			]
		}
	],
	"accessors":[
		{
			"bufferView":0,
			"componentType":5126,
			"count":697,
			"max":[
				17.42803955078125,
				14.737866401672363,
				9.263381004333496
			],
			"min":[
				-16.386308670043945,
				0.06411576271057129,
				-9.395236015319824
			],
			"type":"VEC3"
		},
		{
			"bufferView":1,
			"componentType":5126,
			"count":697,
			"type":"VEC3"
		},
		{
			"bufferView":2,
			"componentType":5126,
			"count":697,
			"type":"VEC2"
		},
		{
			"bufferView":3,
			"componentType":5123,
			"count":1434,
			"type":"SCALAR"
		}
	],
	"bufferViews":[
		{
			"buffer":0,
			"byteLength":8364,
			"byteOffset":0,
			"target":34962
		},
		{
			"buffer":0,
			"byteLength":8364,
			"byteOffset":8364,
			"target":34962
		},
		{
			"buffer":0,
			"byteLength":5576,
			"byteOffset":16728,
			"target":34962
		},
		{
			"buffer":0,
			"byteLength":2868,
			"byteOffset":22304,
			"target":34963
		}
	],
	"buffers":[
		{
			"byteLength":25172,
			"uri":"cottage_blender.bin"
		}
	]
}
