{
	"asset":{
		"generator":"Khronos glTF Blender I/O v4.2.57",
		"version":"2.0"
	},
	"scene":0,
	"scenes":[
		{
			"name":"Scene",
			"nodes":[
				0
			]
		}
	],
	"nodes":[
		{
			"mesh":0,
			"name":"Cube"
		}
	],
	"materials":[
		{
			"doubleSided":true,
			"name":"0020",
			"pbrMetallicRoughness":{
				"baseColorTexture":{
					"index":0
				},
				"metallicFactor":0,
				"roughnessFactor":0.6900347471237183
			}
		},
		{
			"doubleSided":true,
			"name":"0022",
			"pbrMetallicRoughness":{
				"baseColorTexture":{
					"index":1
				},
				"metallicFactor":0,
				"roughnessFactor":0.6900347471237183
			}
		},
		{
			"doubleSided":true,
			"name":"0023",
			"pbrMetallicRoughness":{
				"baseColorTexture":{
					"index":2
				},
				"metallicFactor":0,
				"roughnessFactor":0.6900347471237183
			}
		},
		{
			"doubleSided":true,
			"name":"0024",
			"pbrMetallicRoughness":{
				"baseColorTexture":{
					"index":3
				},
				"metallicFactor":0,
				"roughnessFactor":0.6900347471237183
			}
		}
	],
	"meshes":[
		{
			"name":"Cube.001",
			"primitives":[
				{
					"attributes":{
						"POSITION":0,
						"NORMAL":1,
						"TEXCOORD_0":2
					},
					"indices":3,
					"material":0
				},
				{
					"attributes":{
						"POSITION":4,
						"NORMAL":5,
						"TEXCOORD_0":6
					},
					"indices":7,
					"material":1
				},
				{
					"attributes":{
						"POSITION":8,
						"NORMAL":9,
						"TEXCOORD_0":10
					},
					"indices":11,
					"material":2
				},
				{
					"attributes":{
						"POSITION":12,
						"NORMAL":13,
						"TEXCOORD_0":14
					},
					"indices":15,
					"material":3
				}
			]
		}
	],
	"textures":[
		{
			"sampler":0,
			"source":0
		},
		{
			"sampler":0,
			"source":1
		},
		{
			"sampler":0,
			"source":2
		},
		{
			"sampler":0,
			"source":3
		}
	],
	"images":[
		{
			"mimeType":"image/jpeg",
			"name":"76c21994e5cded3325b9e50a7d841545",
			"uri":"76c21994e5cded3325b9e50a7d841545.jpg"
		},
		{
			"mimeType":"image/jpeg",
			"name":"6592290983_dda44ab3dd_b",
			"uri":"6592290983_dda44ab3dd_b.jpg"
		},
		{
			"mimeType":"image/jpeg",
			"name":"Doors-10",
			"uri":"Doors-10.jpg"
		},
		{
			"mimeType":"image/jpeg",
			"name":"Asphalt-Top-Texture-1024x769",
			"uri":"Asphalt-Top-Texture-1024x769.jpg"
		}
	],
	"accessors":[
		{
			"bufferView":0,
			"componentType":5126,
			"count":5771,
			"max":[
				2.533128023147583,
				5.227411270141602,
				3.2196109294891357
			],
			"min":[
				-2.354537010192871,
				-0.013129055500030518,
				-3.0791471004486084
			],
			"type":"VEC3"
		},
		{
			"bufferView":1,
			"componentType":5126,
			"count":5771,
			"type":"VEC3"
		},
		{
			"bufferView":2,
			"componentType":5126,
			"count":5771,
			"type":"VEC2"
		},
		{
			"bufferView":3,
			"componentType":5123,
			"count":9078,
			"type":"SCALAR"
		},
		{
			"bufferView":4,
			"componentType":5126,
			"count":220,
			"max":[
				2.00722599029541,
				4.990932941436768,
				2.4591567516326904
			],
			"min":[
				-1.7213239669799805,
				0.05999499559402466,
				-2.2167539596557617
			],
			"type":"VEC3"
		},
		{
			"bufferView":5,
			"componentType":5126,
			"count":220,
			"type":"VEC3"
		},
		{
			"bufferView":6,
			"componentType":5126,
			"count":220,
			"type":"VEC2"
		},
		{
			"bufferView":7,
			"componentType":5123,
			"count":330,
			"type":"SCALAR"
		},
		{
			"bufferView":8,
			"componentType":5126,
			"count":4,
			"max":[
				0.8186249732971191,
				1.100380301475525,
				1.562019944190979
			],
			"min":[
				-0.46354299783706665,
				0.21249330043792725,
				1.562019944190979
			],
			"type":"VEC3"
		},
		{
			"bufferView":9,
			"componentType":5126,
			"count":4,
			"type":"VEC3"
		},
		{
			"bufferView":10,
			"componentType":5126,
			"count":4,
			"type":"VEC2"
		},
		{
			"bufferView":11,
			"componentType":5123,
			"count":6,
			"type":"SCALAR"
		},
		{
			"bufferView":12,
			"componentType":5126,
			"count":86,
			"max":[
				2.533128023147583,
				0.19269341230392456,
				3.1810250282287598
			],
			"min":[
				-2.354537010192871,
				0.01843792200088501,
				-3.079145908355713
			],
			"type":"VEC3"
		},
		{
			"bufferView":13,
			"componentType":5126,
			"count":86,
			"type":"VEC3"
		},
		{
			"bufferView":14,
			"componentType":5126,
			"count":86,
			"type":"VEC2"
		},
		{
			"bufferView":15,
			"componentType":5123,
			"count":234,
			"type":"SCALAR"
		}
	],
	"bufferViews":[
		{
			"buffer":0,
			"byteLength":69252,
			"byteOffset":0,
			"target":34962
		},
		{
			"buffer":0,
			"byteLength":69252,
			"byteOffset":69252,
			"target":34962
		},
		{
			"buffer":0,
			"byteLength":46168,
			"byteOffset":138504,
			"target":34962
		},
		{
			"buffer":0,
			"byteLength":18156,
			"byteOffset":184672,
			"target":34963
		},
		{
			"buffer":0,
			"byteLength":2640,
			"byteOffset":202828,
			"target":34962
		},
		{
			"buffer":0,
			"byteLength":2640,
			"byteOffset":205468,
			"target":34962
		},
		{
			"buffer":0,
			"byteLength":1760,
			"byteOffset":208108,
			"target":34962
		},
		{
			"buffer":0,
			"byteLength":660,
			"byteOffset":209868,
			"target":34963
		},
		{
			"buffer":0,
			"byteLength":48,
			"byteOffset":210528,
			"target":34962
		},
		{
			"buffer":0,
			"byteLength":48,
			"byteOffset":210576,
			"target":34962
		},
		{
			"buffer":0,
			"byteLength":32,
			"byteOffset":210624,
			"target":34962
		},
		{
			"buffer":0,
			"byteLength":12,
			"byteOffset":210656,
			"target":34963
		},
		{
			"buffer":0,
			"byteLength":1032,
			"byteOffset":210668,
			"target":34962
		},
		{
			"buffer":0,
			"byteLength":1032,
			"byteOffset":211700,
			"target":34962
		},
		{
			"buffer":0,
			"byteLength":688,
			"byteOffset":212732,
			"target":34962
		},
		{
			"buffer":0,
			"byteLength":468,
			"byteOffset":213420,
			"target":34963
		}
	],
	"samplers":[
		{
			"magFilter":9729,
			"minFilter":9987
		}
	],
	"buffers":[
		{
			"byteLength":213888,
			"uri":"building.bin"
		}
	]
}
