{
	"asset":{
		"generator":"Khronos glTF Blender I/O v4.1.63",
		"version":"2.0"
	},
	"scene":0,
	"scenes":[
		{
			"name":"Scene",
			"nodes":[
				1
			]
		}
	],
	"nodes":[
		{
			"mesh":0,
			"name":"Avocado.001",
			"rotation":[
				0,
				1,
				0,
				0
			],
			"scale":[
				0.5819038152694702,
				0.5819038152694702,
				0.5819038152694702
			],
			"translation":[
				-0.03999999910593033,
				0,
				0
			]
		},
		{
			"children":[
				0
			],
			"mesh":0,
			"name":"Avocado",
			"rotation":[
				0,
				-1,
				0,
				4.371138828673793e-08
			]
		}
	],
	"materials":[
		{
			"name":"2256_Avocado_d",
			"normalTexture":{
				"index":0
			},
			"pbrMetallicRoughness":{
				"baseColorTexture":{
					"index":1
				},
				"metallicRoughnessTexture":{
					"index":2
				}
			}
		}
	],
	"meshes":[
		{
			"name":"Avocado",
			"primitives":[
				{
					"attributes":{
						"POSITION":0,
						"NORMAL":1,
						"TEXCOORD_0":2
					},
					"indices":3,
					"material":0
				}
			]
		}
	],
	"textures":[
		{
			"sampler":0,
			"source":0
		},
		{
			"sampler":0,
			"source":1
		},
		{
			"sampler":0,
			"source":2
		}
	],
	"images":[
		{
			"mimeType":"image/png",
			"name":"Avocado_normal",
			"uri":"Avocado_normal.png"
		},
		{
			"mimeType":"image/png",
			"name":"Avocado_baseColor",
			"uri":"Avocado_baseColor.png"
		},
		{
			"mimeType":"image/png",
			"name":"Avocado_roughnessMetallic",
			"uri":"Avocado_roughnessMetallic.png"
		}
	],
	"accessors":[
		{
			"bufferView":0,
			"componentType":5126,
			"count":406,
			"max":[
				0.021280910819768906,
				0.0628480613231659,
				0.013809001073241234
			],
			"min":[
				-0.021280910819768906,
				-4.7738551074871793e-05,
				-0.01380900014191866
			],
			"type":"VEC3"
		},
		{
			"bufferView":1,
			"componentType":5126,
			"count":406,
			"type":"VEC3"
		},
		{
			"bufferView":2,
			"componentType":5126,
			"count":406,
			"type":"VEC2"
		},
		{
			"bufferView":3,
			"componentType":5123,
			"count":2046,
			"type":"SCALAR"
		}
	],
	"bufferViews":[
		{
			"buffer":0,
			"byteLength":4872,
			"byteOffset":0,
			"target":34962
		},
		{
			"buffer":0,
			"byteLength":4872,
			"byteOffset":4872,
			"target":34962
		},
		{
			"buffer":0,
			"byteLength":3248,
			"byteOffset":9744,
			"target":34962
		},
		{
			"buffer":0,
			"byteLength":4092,
			"byteOffset":12992,
			"target":34963
		}
	],
	"samplers":[
		{
			"magFilter":9729,
			"minFilter":9987
		}
	],
	"buffers":[
		{
			"byteLength":17084,
			"uri":"Avocado.bin"
		}
	]
}
