{
	"asset":{
		"generator":"Khronos glTF Blender I/O v4.2.57",
		"version":"2.0"
	},
	"extensionsUsed":[
		"KHR_materials_specular",
		"KHR_materials_ior",
		"KHR_texture_transform"
	],
	"extensionsRequired":[
		"KHR_texture_transform"
	],
	"scene":0,
	"scenes":[
		{
			"name":"Scene",
			"nodes":[
				0
			]
		}
	],
	"nodes":[
		{
			"mesh":0,
			"name":"building_4_Cube.009"
		}
	],
	"materials":[
		{
			"doubleSided":true,
			"extensions":{
				"KHR_materials_specular":{
					"specularFactor":0.4000000059604645
				},
				"KHR_materials_ior":{
					"ior":1
				}
			},
			"name":"uv_bangunan_ats",
			"pbrMetallicRoughness":{
				"baseColorTexture":{
					"index":0
				},
				"metallicFactor":0,
				"roughnessFactor":0.6900347471237183
			}
		},
		{
			"doubleSided":true,
			"extensions":{
				"KHR_materials_specular":{
					"specularFactor":0.4000000059604645
				},
				"KHR_materials_ior":{
					"ior":1
				}
			},
			"name":"uv_bangunan_2",
			"pbrMetallicRoughness":{
				"baseColorTexture":{
					"extensions":{
						"KHR_texture_transform":{
							"offset":[
								0,
								-4
							],
							"scale":[
								5,
								5
							]
						}
					},
					"index":1
				},
				"metallicFactor":0,
				"roughnessFactor":0.6900347471237183
			}
		},
		{
			"doubleSided":true,
			"extensions":{
				"KHR_materials_specular":{
					"specularFactor":0.4000000059604645
				},
				"KHR_materials_ior":{
					"ior":1
				}
			},
			"name":"col_jendela_building_1_2",
			"pbrMetallicRoughness":{
				"baseColorFactor":[
					0.6399999856948853,
					0.6399999856948853,
					0.6399999856948853,
					1
				],
				"metallicFactor":0,
				"roughnessFactor":0.6900347471237183
			}
		},
		{
			"doubleSided":true,
			"extensions":{
				"KHR_materials_specular":{
					"specularFactor":0.4000000059604645
				},
				"KHR_materials_ior":{
					"ior":1
				}
			},
			"name":"col_jendela_building_4_2",
			"pbrMetallicRoughness":{
				"baseColorFactor":[
					0.028171999379992485,
					0.028171999379992485,
					0.028171999379992485,
					1
				],
				"metallicFactor":0,
				"roughnessFactor":0.6900347471237183
			}
		}
	],
	"meshes":[
		{
			"name":"building_4_Cube.009",
			"primitives":[
				{
					"attributes":{
						"POSITION":0,
						"NORMAL":1,
						"TEXCOORD_0":2
					},
					"indices":3,
					"material":0
				},
				{
					"attributes":{
						"POSITION":4,
						"NORMAL":5,
						"TEXCOORD_0":6
					},
					"indices":7,
					"material":1
				},
				{
					"attributes":{
						"POSITION":8,
						"NORMAL":9,
						"TEXCOORD_0":10
					},
					"indices":11,
					"material":1
				},
				{
					"attributes":{
						"POSITION":12,
						"NORMAL":13,
						"TEXCOORD_0":14
					},
					"indices":15,
					"material":0
				},
				{
					"attributes":{
						"POSITION":16,
						"NORMAL":17,
						"TEXCOORD_0":18
					},
					"indices":19,
					"material":1
				},
				{
					"attributes":{
						"POSITION":20,
						"NORMAL":21,
						"TEXCOORD_0":22
					},
					"indices":23,
					"material":2
				},
				{
					"attributes":{
						"POSITION":24,
						"NORMAL":25,
						"TEXCOORD_0":26
					},
					"indices":27,
					"material":0
				},
				{
					"attributes":{
						"POSITION":28,
						"NORMAL":29,
						"TEXCOORD_0":30
					},
					"indices":31,
					"material":3
				}
			]
		}
	],
	"textures":[
		{
			"sampler":0,
			"source":0
		},
		{
			"sampler":0,
			"source":1
		}
	],
	"images":[
		{
			"mimeType":"image/jpeg",
			"name":"tex_besi_2",
			"uri":"tex_besi_2.jpg"
		},
		{
			"mimeType":"image/jpeg",
			"name":"wall_2",
			"uri":"wall_2.jpg"
		}
	],
	"accessors":[
		{
			"bufferView":0,
			"componentType":5126,
			"count":44,
			"max":[
				1.000097632408142,
				4.952208042144775,
				1.0803024768829346
			],
			"min":[
				-0.9999023675918579,
				4.789229869842529,
				-0.9196985960006714
			],
			"type":"VEC3"
		},
		{
			"bufferView":1,
			"componentType":5126,
			"count":44,
			"type":"VEC3"
		},
		{
			"bufferView":2,
			"componentType":5126,
			"count":44,
			"type":"VEC2"
		},
		{
			"bufferView":3,
			"componentType":5123,
			"count":78,
			"type":"SCALAR"
		},
		{
			"bufferView":4,
			"componentType":5126,
			"count":989,
			"max":[
				1.000097632408142,
				4.4153828620910645,
				1.0803027153015137
			],
			"min":[
				-0.9999023675918579,
				0.18952202796936035,
				-0.9196985960006714
			],
			"type":"VEC3"
		},
		{
			"bufferView":5,
			"componentType":5126,
			"count":989,
			"type":"VEC3"
		},
		{
			"bufferView":6,
			"componentType":5126,
			"count":989,
			"type":"VEC2"
		},
		{
			"bufferView":7,
			"componentType":5123,
			"count":1497,
			"type":"SCALAR"
		},
		{
			"bufferView":8,
			"componentType":5126,
			"count":225,
			"max":[
				1.000097632408142,
				4.789229869842529,
				1.0803027153015137
			],
			"min":[
				-0.9999023675918579,
				-0.03181103616952896,
				-0.9196985960006714
			],
			"type":"VEC3"
		},
		{
			"bufferView":9,
			"componentType":5126,
			"count":225,
			"type":"VEC3"
		},
		{
			"bufferView":10,
			"componentType":5126,
			"count":225,
			"type":"VEC2"
		},
		{
			"bufferView":11,
			"componentType":5123,
			"count":939,
			"type":"SCALAR"
		},
		{
			"bufferView":12,
			"componentType":5126,
			"count":996,
			"max":[
				0.28325867652893066,
				5.98239278793335,
				0.8936735391616821
			],
			"min":[
				-0.685628354549408,
				4.7822418212890625,
				-0.7538846135139465
			],
			"type":"VEC3"
		},
		{
			"bufferView":13,
			"componentType":5126,
			"count":996,
			"type":"VEC3"
		},
		{
			"bufferView":14,
			"componentType":5126,
			"count":996,
			"type":"VEC2"
		},
		{
			"bufferView":15,
			"componentType":5123,
			"count":2358,
			"type":"SCALAR"
		},
		{
			"bufferView":16,
			"componentType":5126,
			"count":1176,
			"max":[
				1.0738855600357056,
				5.2213921546936035,
				1.1540896892547607
			],
			"min":[
				-1.073690414428711,
				1.2579350471496582,
				-0.9934865236282349
			],
			"type":"VEC3"
		},
		{
			"bufferView":17,
			"componentType":5126,
			"count":1176,
			"type":"VEC3"
		},
		{
			"bufferView":18,
			"componentType":5126,
			"count":1176,
			"type":"VEC2"
		},
		{
			"bufferView":19,
			"componentType":5123,
			"count":1782,
			"type":"SCALAR"
		},
		{
			"bufferView":20,
			"componentType":5126,
			"count":8,
			"max":[
				-0.09951341152191162,
				5.197323799133301,
				0.8612264394760132
			],
			"min":[
				-0.11862432956695557,
				4.862789154052734,
				0.5266914367675781
			],
			"type":"VEC3"
		},
		{
			"bufferView":21,
			"componentType":5126,
			"count":8,
			"type":"VEC3"
		},
		{
			"bufferView":22,
			"componentType":5126,
			"count":8,
			"type":"VEC2"
		},
		{
			"bufferView":23,
			"componentType":5123,
			"count":12,
			"type":"SCALAR"
		},
		{
			"bufferView":24,
			"componentType":5126,
			"count":8248,
			"max":[
				1.3925646543502808,
				4.283868789672852,
				0.4813128411769867
			],
			"min":[
				-0.8325023651123047,
				-0.02960398979485035,
				-1.4820655584335327
			],
			"type":"VEC3"
		},
		{
			"bufferView":25,
			"componentType":5126,
			"count":8248,
			"type":"VEC3"
		},
		{
			"bufferView":26,
			"componentType":5126,
			"count":8248,
			"type":"VEC2"
		},
		{
			"bufferView":27,
			"componentType":5123,
			"count":17316,
			"type":"SCALAR"
		},
		{
			"bufferView":28,
			"componentType":5126,
			"count":10368,
			"max":[
				0.9912136793136597,
				4.415381908416748,
				1.0714176893234253
			],
			"min":[
				-0.9910183548927307,
				1.2430330514907837,
				-0.9108145236968994
			],
			"type":"VEC3"
		},
		{
			"bufferView":29,
			"componentType":5126,
			"count":10368,
			"type":"VEC3"
		},
		{
			"bufferView":30,
			"componentType":5126,
			"count":10368,
			"type":"VEC2"
		},
		{
			"bufferView":31,
			"componentType":5123,
			"count":20736,
			"type":"SCALAR"
		}
	],
	"bufferViews":[
		{
			"buffer":0,
			"byteLength":528,
			"byteOffset":0,
			"target":34962
		},
		{
			"buffer":0,
			"byteLength":528,
			"byteOffset":528,
			"target":34962
		},
		{
			"buffer":0,
			"byteLength":352,
			"byteOffset":1056,
			"target":34962
		},
		{
			"buffer":0,
			"byteLength":156,
			"byteOffset":1408,
			"target":34963
		},
		{
			"buffer":0,
			"byteLength":11868,
			"byteOffset":1564,
			"target":34962
		},
		{
			"buffer":0,
			"byteLength":11868,
			"byteOffset":13432,
			"target":34962
		},
		{
			"buffer":0,
			"byteLength":7912,
			"byteOffset":25300,
			"target":34962
		},
		{
			"buffer":0,
			"byteLength":2994,
			"byteOffset":33212,
			"target":34963
		},
		{
			"buffer":0,
			"byteLength":2700,
			"byteOffset":36208,
			"target":34962
		},
		{
			"buffer":0,
			"byteLength":2700,
			"byteOffset":38908,
			"target":34962
		},
		{
			"buffer":0,
			"byteLength":1800,
			"byteOffset":41608,
			"target":34962
		},
		{
			"buffer":0,
			"byteLength":1878,
			"byteOffset":43408,
			"target":34963
		},
		{
			"buffer":0,
			"byteLength":11952,
			"byteOffset":45288,
			"target":34962
		},
		{
			"buffer":0,
			"byteLength":11952,
			"byteOffset":57240,
			"target":34962
		},
		{
			"buffer":0,
			"byteLength":7968,
			"byteOffset":69192,
			"target":34962
		},
		{
			"buffer":0,
			"byteLength":4716,
			"byteOffset":77160,
			"target":34963
		},
		{
			"buffer":0,
			"byteLength":14112,
			"byteOffset":81876,
			"target":34962
		},
		{
			"buffer":0,
			"byteLength":14112,
			"byteOffset":95988,
			"target":34962
		},
		{
			"buffer":0,
			"byteLength":9408,
			"byteOffset":110100,
			"target":34962
		},
		{
			"buffer":0,
			"byteLength":3564,
			"byteOffset":119508,
			"target":34963
		},
		{
			"buffer":0,
			"byteLength":96,
			"byteOffset":123072,
			"target":34962
		},
		{
			"buffer":0,
			"byteLength":96,
			"byteOffset":123168,
			"target":34962
		},
		{
			"buffer":0,
			"byteLength":64,
			"byteOffset":123264,
			"target":34962
		},
		{
			"buffer":0,
			"byteLength":24,
			"byteOffset":123328,
			"target":34963
		},
		{
			"buffer":0,
			"byteLength":98976,
			"byteOffset":123352,
			"target":34962
		},
		{
			"buffer":0,
			"byteLength":98976,
			"byteOffset":222328,
			"target":34962
		},
		{
			"buffer":0,
			"byteLength":65984,
			"byteOffset":321304,
			"target":34962
		},
		{
			"buffer":0,
			"byteLength":34632,
			"byteOffset":387288,
			"target":34963
		},
		{
			"buffer":0,
			"byteLength":124416,
			"byteOffset":421920,
			"target":34962
		},
		{
			"buffer":0,
			"byteLength":124416,
			"byteOffset":546336,
			"target":34962
		},
		{
			"buffer":0,
			"byteLength":82944,
			"byteOffset":670752,
			"target":34962
		},
		{
			"buffer":0,
			"byteLength":41472,
			"byteOffset":753696,
			"target":34963
		}
	],
	"samplers":[
		{
			"magFilter":9729,
			"minFilter":9987
		}
	],
	"buffers":[
		{
			"byteLength":795168,
			"uri":"building1.bin"
		}
	]
}
