{
	"asset":{
		"generator":"Khronos glTF Blender I/O v4.3.47",
		"version":"2.0"
	},
	"scene":0,
	"scenes":[
		{
			"name":"Scene",
			"nodes":[
				0
			]
		}
	],
	"nodes":[
		{
			"mesh":0,
			"name":"watchtowerHigh"
		}
	],
	"materials":[
		{
			"doubleSided":true,
			"name":"watchtower",
			"normalTexture":{
				"index":0
			},
			"pbrMetallicRoughness":{
				"baseColorTexture":{
					"index":1
				},
				"metallicFactor":0,
				"roughnessFactor":0.5
			}
		}
	],
	"meshes":[
		{
			"name":"watchtower",
			"primitives":[
				{
					"attributes":{
						"POSITION":0,
						"NORMAL":1,
						"TEXCOORD_0":2
					},
					"indices":3,
					"material":0
				}
			]
		}
	],
	"textures":[
		{
			"sampler":0,
			"source":0
		},
		{
			"sampler":0,
			"source":1
		}
	],
	"images":[
		{
			"mimeType":"image/jpeg",
			"name":"Wood_Tower_Nor",
			"uri":"Wood_Tower_Nor.jpg"
		},
		{
			"mimeType":"image/jpeg",
			"name":"Wood_Tower_Col",
			"uri":"Wood_Tower_Col.jpg"
		}
	],
	"accessors":[
		{
			"bufferView":0,
			"componentType":5126,
			"count":4018,
			"max":[
				2.110931634902954,
				8.319665908813477,
				2.110999822616577
			],
			"min":[
				-2.110931634902954,
				0.6714997291564941,
				-2.1108622550964355
			],
			"type":"VEC3"
		},
		{
			"bufferView":1,
			"componentType":5126,
			"count":4018,
			"type":"VEC3"
		},
		{
			"bufferView":2,
			"componentType":5126,
			"count":4018,
			"type":"VEC2"
		},
		{
			"bufferView":3,
			"componentType":5123,
			"count":6108,
			"type":"SCALAR"
		}
	],
	"bufferViews":[
		{
			"buffer":0,
			"byteLength":48216,
			"byteOffset":0,
			"target":34962
		},
		{
			"buffer":0,
			"byteLength":48216,
			"byteOffset":48216,
			"target":34962
		},
		{
			"buffer":0,
			"byteLength":32144,
			"byteOffset":96432,
			"target":34962
		},
		{
			"buffer":0,
			"byteLength":12216,
			"byteOffset":128576,
			"target":34963
		}
	],
	"samplers":[
		{
			"magFilter":9729,
			"minFilter":9987
		}
	],
	"buffers":[
		{
			"byteLength":140792,
			"uri":"tower.bin"
		}
	]
}
