{
	"asset":{
		"generator":"Khronos glTF Blender I/O v4.1.63",
		"version":"2.0"
	},
	"scene":0,
	"scenes":[
		{
			"name":"Scene",
			"nodes":[
				0,
				1
			]
		}
	],
	"nodes":[
		{
			"mesh":0,
			"name":"Plane",
			"scale":[
				12.755478858947754,
				12.755478858947754,
				12.755478858947754
			],
			"translation":[
				-3.7932708263397217,
				-0.20690688490867615,
				-3.545510768890381
			]
		},
		{
			"mesh":1,
			"name":"Landscape",
			"scale":[
				1.6111763715744019,
				2.804471015930176,
				2.090606451034546
			]
		}
	],
	"materials":[
		{
			"doubleSided":true,
			"name":"Material",
			"pbrMetallicRoughness":{
				"baseColorFactor":[
					0.06372066587209702,
					0.06372066587209702,
					0.06372066587209702,
					1
				],
				"metallicFactor":0,
				"roughnessFactor":0.5
			}
		},
		{
			"doubleSided":true,
			"name":"Material.001",
			"pbrMetallicRoughness":{
				"baseColorTexture":{
					"index":0
				},
				"metallicFactor":0,
				"roughnessFactor":0.5
			}
		}
	],
	"meshes":[
		{
			"name":"Plane",
			"primitives":[
				{
					"attributes":{
						"POSITION":0,
						"NORMAL":1
					},
					"indices":2,
					"material":0
				}
			]
		},
		{
			"name":"Landscape",
			"primitives":[
				{
					"attributes":{
						"POSITION":3,
						"NORMAL":4,
						"TEXCOORD_0":5
					},
					"indices":6,
					"material":1
				}
			]
		}
	],
	"textures":[
		{
			"sampler":0,
			"source":0
		}
	],
	"images":[
		{
			"mimeType":"image/jpeg",
			"name":"ground_grass_3264_4062_Small",
			"uri":"ground_grass_3264_4062_Small.jpg"
		}
	],
	"accessors":[
		{
			"bufferView":0,
			"componentType":5126,
			"count":4,
			"max":[
				1,
				0,
				1
			],
			"min":[
				-1,
				0,
				-1
			],
			"type":"VEC3"
		},
		{
			"bufferView":1,
			"componentType":5126,
			"count":4,
			"type":"VEC3"
		},
		{
			"bufferView":2,
			"componentType":5123,
			"count":6,
			"type":"SCALAR"
		},
		{
			"bufferView":3,
			"componentType":5126,
			"count":3600,
			"max":[
				2.0085270404815674,
				0.615817666053772,
				2.0063834190368652
			],
			"min":[
				-2.0050017833709717,
				-0.05565790459513664,
				-2.0049996376037598
			],
			"type":"VEC3"
		},
		{
			"bufferView":4,
			"componentType":5126,
			"count":3600,
			"type":"VEC3"
		},
		{
			"bufferView":5,
			"componentType":5126,
			"count":3600,
			"type":"VEC2"
		},
		{
			"bufferView":6,
			"componentType":5123,
			"count":20886,
			"type":"SCALAR"
		}
	],
	"bufferViews":[
		{
			"buffer":0,
			"byteLength":48,
			"byteOffset":0,
			"target":34962
		},
		{
			"buffer":0,
			"byteLength":48,
			"byteOffset":48,
			"target":34962
		},
		{
			"buffer":0,
			"byteLength":12,
			"byteOffset":96,
			"target":34963
		},
		{
			"buffer":0,
			"byteLength":43200,
			"byteOffset":108,
			"target":34962
		},
		{
			"buffer":0,
			"byteLength":43200,
			"byteOffset":43308,
			"target":34962
		},
		{
			"buffer":0,
			"byteLength":28800,
			"byteOffset":86508,
			"target":34962
		},
		{
			"buffer":0,
			"byteLength":41772,
			"byteOffset":115308,
			"target":34963
		}
	],
	"samplers":[
		{
			"magFilter":9729,
			"minFilter":9987
		}
	],
	"buffers":[
		{
			"byteLength":157080,
			"uri":"mount.blend1.bin"
		}
	]
}
